{
  "asset": {
    "generator": "Khronos glTF Blender I/O v1.6.16",
    "version": "2.0"
  },
  "scene": 0,
  "scenes": [
    {
      "name": "Scene",
      "nodes": [
        0
      ]
    }
  ],
  "nodes": [
    {
      "mesh": 0,
      "name": "steel_frame_shelves_02"
    }
  ],
  "materials": [
    {
      "doubleSided": true,
      "name": "steel_frame_shelves_02",
      "normalTexture": {
        "index": 0
      },
      "pbrMetallicRoughness": {
        "baseColorTexture": {
          "index": 1
        },
        "metallicRoughnessTexture": {
          "index": 2
        }
      }
    }
  ],
  "meshes": [
    {
      "name": "Cylinder.007",
      "primitives": [
        {
          "attributes": {
            "POSITION": 0,
            "NORMAL": 1,
            "TEXCOORD_0": 2
          },
          "indices": 3,
          "material": 0
        }
      ]
    }
  ],
  "textures": [
    {
      "sampler": 0,
      "source": 0
    },
    {
      "sampler": 0,
      "source": 1
    },
    {
      "sampler": 0,
      "source": 2
    }
  ],
  "images": [
    {
      "mimeType": "image/jpeg",
      "name": "steel_frame_shelves_02_nor_gl",
      "uri": "textures/steel_frame_shelves_02_nor_gl_4k.jpg"
    },
    {
      "mimeType": "image/jpeg",
      "name": "steel_frame_shelves_02_diff",
      "uri": "textures/steel_frame_shelves_02_diff_4k.jpg"
    },
    {
      "mimeType": "image/jpeg",
      "name": "steel_frame_shelves_02_metal-steel_frame_shelves_02_rough",
      "uri": "textures/steel_frame_shelves_02_arm_4k.jpg"
    }
  ],
  "accessors": [
    {
      "bufferView": 0,
      "componentType": 5126,
      "count": 3633,
      "max": [
        0.29665154218673706,
        2.140542984008789,
        0.25118905305862427
      ],
      "min": [
        -0.2966512143611908,
        -0.0010684445733204484,
        -0.25118905305862427
      ],
      "type": "VEC3"
    },
    {
      "bufferView": 1,
      "componentType": 5126,
      "count": 3633,
      "type": "VEC3"
    },
    {
      "bufferView": 2,
      "componentType": 5126,
      "count": 3633,
      "type": "VEC2"
    },
    {
      "bufferView": 3,
      "componentType": 5123,
      "count": 13044,
      "type": "SCALAR"
    }
  ],
  "bufferViews": [
    {
      "buffer": 0,
      "byteLength": 43596,
      "byteOffset": 0
    },
    {
      "buffer": 0,
      "byteLength": 43596,
      "byteOffset": 43596
    },
    {
      "buffer": 0,
      "byteLength": 29064,
      "byteOffset": 87192
    },
    {
      "buffer": 0,
      "byteLength": 26088,
      "byteOffset": 116256
    }
  ],
  "samplers": [
    {
      "magFilter": 9729,
      "minFilter": 9987
    }
  ],
  "buffers": [
    {
      "byteLength": 142344,
      "uri": "steel_frame_shelves_02.bin"
    }
  ]
}